# xmcd CD database file
#
# Track frame offsets:
#	150
#	25035
#	52009
#	80342
#	94471
#	125943
#	145164
#	165235
#
# Disc length: 2457 seconds
#
# Revision: 0
# Processed by: cddbd v1.5.2PL0 Copyright (c) Steve Scherf et al.
# Submitted via: CDex 1.70beta2
#
DISCID=67099708
DTITLE=B.B. KING - Live at Rumble In The Jungle
DYEAR=2014
DGENRE=Blues
TTITLE0=To Know You Is To Love You
TTITLE1=I Believe In My Soul
TTITLE2=Why I Sing The Blues
TTITLE3=Ain't Nobody Home
TTITLE4=Sweet Sixteen
TTITLE5=The Thrill Is Gone
TTITLE6=Guess Who
TTITLE7=I Like To Live The Love
EXTD=YEAR: 2014
EXTT0=
EXTT1=
EXTT2=
EXTT3=
EXTT4=
EXTT5=
EXTT6=
EXTT7=
PLAYORDER=
